<svg xmlns="http://www.w3.org/2000/svg" xmlns:xlink="http://www.w3.org/1999/xlink" width="23" height="28" viewBox="0 0 23 28"><defs><path id="imkja" d="M830.46 2246.74a.83.83 0 0 1-.61.26.83.83 0 0 1-.61-.26.9.9 0 0 1 0-1.25l10.74-11-10.74-11a.9.9 0 0 1 0-1.25.85.85 0 0 1 1.22 0l11.35 11.63a.9.9 0 0 1 0 1.25zm5.94 0a.83.83 0 0 1-.61.26.83.83 0 0 1-.61-.26.9.9 0 0 1 0-1.25l10.73-11-10.73-11a.9.9 0 0 1 0-1.25.85.85 0 0 1 1.22 0l11.35 11.63a.9.9 0 0 1 0 1.25z"/></defs><g><g transform="translate(-827 -2220)"><use fill="#1f5c84" xlink:href="#imkja"/></g></g></svg>