<svg xmlns="http://www.w3.org/2000/svg" xmlns:xlink="http://www.w3.org/1999/xlink" width="31" height="32" viewBox="0 0 31 32"><defs><path id="6ujga" d="M921.57 93.68V91.6a2 2 0 1 1 4 0v2.1a2 2 0 1 1-4 0zm9.13 24.72H902.3V93l4.06.05v1.02a3.05 3.05 0 0 0 6.09 0v-1.02h8.11v1.02a3.04 3.04 0 0 0 6.09 0v-1.02h4.02zm-2.03-18.25h-24.34v16.23h24.34zm-21.3-6.47V91.6a2 2 0 1 1 4 0v2.1a2 2 0 1 1-4 0zm5.08 8.65h3.2v2.82h-3.2zm5.17 0h3.2v2.82h-3.2zm4.8 0h3.19v2.82h-3.2zm-9.97 4.68h3.2v2.82h-3.2zm5.17 0h3.2v2.82h-3.2zm4.8 0h3.19v2.82h-3.2zm-9.97 4.78h3.2v2.82h-3.2zm-5.08-4.78h3.2v2.82h-3.2zm0 4.78h3.2v2.82h-3.2zm10.25 0h3.2v2.82h-3.2zm4.8 0h3.19v2.82h-3.2z"/></defs><g><g transform="translate(-901 -88)"><use fill="#fa7c00" xlink:href="#6ujga"/></g></g></svg>