<svg xmlns="http://www.w3.org/2000/svg" xmlns:xlink="http://www.w3.org/1999/xlink" width="34" height="35" viewBox="0 0 34 35"><defs><path id="a8rpa" d="M455.61 9834.1l-6.54 6.27-1.34-1.41 4.95-4.76c.48-.46.5-1.22.03-1.7l-4.42-4.56a1.2 1.2 0 0 0-1.7-.03l-3.9 3.75 3.38 3.5c.28.28.26.76-.03 1.04-.2.2-.5.25-.76.17l-4.9-5.19 6.42-6.18a1 1 0 0 1 1.4.04l7.42 7.67c.38.39.38 1.01 0 1.38zm-16.67 13.3l1.35 1.42-7.1 6.8a.99.99 0 0 1-1.38-.03l-7.43-7.67a.98.98 0 0 1 0-1.38l7.2-6.91 3.77 3.97a.73.73 0 0 1-1.24.35l-2.03-2.1-.54.52 2.03 2.1c.28.3.28.75-.01 1.03a.73.73 0 0 1-1.03-.03l-2.03-2.1-.55.53 2.04 2.1c.28.29.27.74-.02 1.02a.73.73 0 0 1-1.03-.02l-2.03-2.1-.54.52 2.03 2.1c.28.3.27.75-.02 1.03a.73.73 0 0 1-1.03-.02l-2.03-2.1a1.2 1.2 0 0 0-.03 1.69l4.42 4.56a1.22 1.22 0 0 0 1.7.03zm7.45-13.55c-.93-.96-.9-2.5.07-3.44a2.43 2.43 0 1 1 3.39 3.5c-.97.93-2.52.9-3.46-.06zm1.05-1a1 1 0 0 0 1.4.02c.38-.38.4-1 .02-1.39a.98.98 0 1 0-1.41 1.36zm3.95 12.45l-6.4 6-14.25-15.06 6.4-6zm-13.18-10.86a.55.55 0 0 0-.15-.39l-.7-.73a.55.55 0 0 0-.77-.03l-.38.36a.55.55 0 0 0-.02.77l.69.74c.1.1.24.17.39.17.14 0 .77-.5.77-.5.1-.1.17-.24.17-.39zm9.9 11.03c.23-.2.23-.55.02-.77l-8-8.46a.55.55 0 0 0-.78-.03l-.38.36a.54.54 0 0 0-.02.77l8 8.46c.1.11.24.17.4.18.14 0 .28-.05.39-.15zm-19.67-11.66l6.4-6 1.65 1.74-6.4 6zm-2.85-3.01a1.89 1.89 0 0 1 .08-2.68l3.63-3.4a1.9 1.9 0 0 1 2.69.08l2.24 2.37-6.4 6zm1.14-1.3l1.18 1.23 3.87-3.63-1.17-1.24zm27.9 24.38a.94.94 0 0 1-1.24 1.16l-7.59-2.88 6.4-6zm-2.02-2.6l-.96-3.03-3.72 3.48 2.99 1.14z"/></defs><g><g transform="translate(-423 -9822)"><use fill="#fff" xlink:href="#a8rpa"/></g></g></svg>