<svg xmlns="http://www.w3.org/2000/svg" xmlns:xlink="http://www.w3.org/1999/xlink" width="35" height="35" viewBox="0 0 35 35"><defs><path id="aypya" d="M1477.8 202.8a3.2 3.2 0 0 1-3.2 3.2 3.2 3.2 0 0 1-3.2-3.2 3.2 3.2 0 0 1 3.2-3.2 3.2 3.2 0 0 1 3.2 3.2zm-7.52-28.8l1.44 3.2h23.68c.96 0 1.6.64 1.6 1.6 0 .32 0 .48-.32.8l-5.76 10.4a2.92 2.92 0 0 1-2.72 1.6h-11.84l-1.44 2.72v.16c0 .16.16.32.32.32h18.56v3.2h-19.2a3.2 3.2 0 0 1-3.2-3.2c0-.48.16-1.12.32-1.6l2.24-3.84-5.76-12.16h-3.2V174zm23.52 28.8a3.2 3.2 0 0 1-3.2 3.2 3.2 3.2 0 0 1-3.2-3.2 3.2 3.2 0 0 1 3.2-3.2 3.2 3.2 0 0 1 3.2 3.2z"/></defs><g><g transform="translate(-1463 -172)"><use fill="#fff" xlink:href="#aypya"/></g></g></svg>