<svg xmlns="http://www.w3.org/2000/svg" xmlns:xlink="http://www.w3.org/1999/xlink" width="25" height="24" viewBox="0 0 25 24"><defs><path id="w56ga" d="M1121 4925c0-1.1.9-2 2-2h14a2 2 0 0 1 2 2v14a2 2 0 0 1-2 2h-14a2 2 0 0 1-2-2z"/><path id="w56gb" d="M1125 4928c0-1.1.9-2 2-2h14a2 2 0 0 1 2 2v14a2 2 0 0 1-2 2h-14a2 2 0 0 1-2-2z"/><clipPath id="w56gc"><use fill="#fff" xlink:href="#w56ga"/></clipPath><clipPath id="w56gd"><use fill="#fff" xlink:href="#w56gb"/></clipPath></defs><g><g transform="translate(-1119 -4921)"><use fill="#f8f8f8" xlink:href="#w56ga"/><use fill="#fff" fill-opacity="0" stroke="#000" stroke-miterlimit="50" stroke-width="4" clip-path="url(&quot;#w56gc&quot;)" xlink:href="#w56ga"/></g><g transform="translate(-1119 -4921)"><use fill="#f8f8f8" xlink:href="#w56gb"/><use fill="#fff" fill-opacity="0" stroke="#000" stroke-miterlimit="50" stroke-width="4" clip-path="url(&quot;#w56gd&quot;)" xlink:href="#w56gb"/></g></g></svg>