<svg xmlns="http://www.w3.org/2000/svg" xmlns:xlink="http://www.w3.org/1999/xlink" width="18" height="22" viewBox="0 0 18 22"><defs><path id="bwnua" d="M1268 4924.25c0 .18-.14.33-.31.33h-.64l-.6 14.82c-.01.55-.35 1.6-1.53 1.6h-8.84c-1.18 0-1.52-1.05-1.53-1.6l-.6-14.82h-.64a.32.32 0 0 1-.31-.33c0-.17.14-.32.31-.32h3.77c.03-.4.15-1.08.56-1.52.26-.27.6-.41.98-.41h3.13c.4 0 .72.14.98.41.41.44.53 1.12.57 1.52h4.39c.17 0 .31.15.31.32zm-10.31 3.22a.32.32 0 0 0-.32-.32.32.32 0 0 0-.3.32v10.63c0 .18.13.32.3.32.18 0 .32-.14.32-.32zm3.12 0a.32.32 0 0 0-.31-.32.32.32 0 0 0-.31.32v10.63c0 .18.14.32.31.32.17 0 .31-.14.31-.32zm3.13 0a.32.32 0 0 0-.32-.32.32.32 0 0 0-.3.32v10.63c0 .18.13.32.3.32.18 0 .32-.14.32-.32zm-6.24-3.54h4.97c-.03-.34-.14-.8-.39-1.07a.7.7 0 0 0-.53-.22h-3.13a.7.7 0 0 0-.53.22c-.25.27-.35.73-.39 1.07z"/></defs><g><g transform="translate(-1251 -4920)"><use xlink:href="#bwnua"/></g></g></svg>