<svg xmlns="http://www.w3.org/2000/svg" xmlns:xlink="http://www.w3.org/1999/xlink" width="17" height="17" viewBox="0 0 17 17"><defs><path id="6v1ua" d="M1262.93 5024.5l3.71-3.71c.24-.24.36-.52.36-.86 0-.34-.12-.62-.36-.86l-1.71-1.72a1.17 1.17 0 0 0-.86-.35c-.34 0-.62.12-.86.35l-3.71 3.72-3.71-3.72a1.17 1.17 0 0 0-.86-.35c-.34 0-.62.12-.86.35l-1.71 1.72c-.24.24-.36.52-.36.86 0 .34.12.62.36.86l3.7 3.71-3.7 3.71c-.24.24-.36.52-.36.86 0 .34.12.62.36.86l1.71 1.71c.24.24.52.36.86.36.34 0 .62-.12.86-.36l3.71-3.7 3.71 3.7c.24.24.52.36.86.36.34 0 .62-.12.86-.36l1.71-1.71c.24-.24.36-.52.36-.86 0-.34-.12-.62-.36-.86z"/></defs><g><g transform="translate(-1251 -5016)"><use fill="red" xlink:href="#6v1ua"/></g></g></svg>