<svg xmlns="http://www.w3.org/2000/svg" xmlns:xlink="http://www.w3.org/1999/xlink" width="36" height="21" viewBox="0 0 36 21"><defs><path id="ecjua" d="M553.98 28.32a2.72 2.72 0 0 1-2.75 2.68 2.72 2.72 0 0 1-2.76-2.68 2.72 2.72 0 0 1 2.76-2.68c1.52 0 2.75 1.2 2.75 2.68zm-1.38 0c0-.74-.61-1.34-1.37-1.34-.76 0-1.38.6-1.38 1.34 0 .74.62 1.34 1.38 1.34.76 0 1.37-.6 1.37-1.34zm19.4-1.8c0 .7-.6 1.29-1.33 1.29h-1.42a3.62 3.62 0 0 0-3.6-3.03 3.62 3.62 0 0 0-3.61 3.03h-7.2a3.62 3.62 0 0 0-3.61-3.03 3.62 3.62 0 0 0-3.6 3.03h-1.79c-.73 0-1.32-.58-1.32-1.3v-2.86H572zm-3.6 1.8a2.72 2.72 0 0 1-2.76 2.68 2.72 2.72 0 0 1-2.75-2.68 2.72 2.72 0 0 1 2.75-2.68c1.52 0 2.76 1.2 2.76 2.68zm-1.38 0c0-.74-.62-1.34-1.38-1.34-.76 0-1.37.6-1.37 1.34 0 .74.61 1.34 1.37 1.34.76 0 1.38-.6 1.38-1.34zM572 22v.94H544.5V20.4L539 19.4l9.64-.81-9.64-1.34 9.68-.93-9.56-1.21 5.4-.6v-.2c0-.72.6-1.3 1.32-1.3h15.2c.74 0 1.34.58 1.34 1.3v.95H565c.47 0 .91.18 1.25.5l5.22 5.02c.33.33.52.77.52 1.23zm-2.66-1.4l-4.08-3.8a.23.23 0 0 0-.15-.06h-.96a.2.2 0 0 0-.21.2v3.8c0 .11.1.2.2.2h5.06c.19 0 .28-.22.14-.35z"/></defs><g><g transform="translate(-537 -11)"><use fill="#fff" xlink:href="#ecjua"/></g></g></svg>