<svg xmlns="http://www.w3.org/2000/svg" xmlns:xlink="http://www.w3.org/1999/xlink" width="30" height="35" viewBox="0 0 30 35"><defs><path id="8gq4a" d="M427.6 9597.65L418 9611l-9.61-13.37c-3.6-4.6-3.07-12.2 1.13-16.24A12.17 12.17 0 0 1 418 9578c3.2 0 6.22 1.2 8.48 3.39 4.2 4.03 4.72 11.63 1.12 16.26zm-5.1-8.2a4.3 4.3 0 0 0-4.38-4.22 4.3 4.3 0 0 0-4.39 4.22 4.3 4.3 0 0 0 4.39 4.22 4.3 4.3 0 0 0 4.38-4.22z"/></defs><g><g transform="translate(-403 -9577)"><use fill="#fff" xlink:href="#8gq4a"/></g></g></svg>