<svg xmlns="http://www.w3.org/2000/svg" xmlns:xlink="http://www.w3.org/1999/xlink" width="33" height="26" viewBox="0 0 33 26"><defs><path id="gpt9a" d="M406.9 9750.98h25.2c1.13 0 1.34.59.44 1.3l-11.16 8.98c-.5.4-1.2.59-1.88.55a2.82 2.82 0 0 1-1.88-.55l-11.16-8.98c-.9-.71-.7-1.3.44-1.3zm28.1 4.5v15.42c0 1.16-.94 2.1-2.07 2.1h-26.86a2.09 2.09 0 0 1-2.07-2.1v-15.42c0-1.15.75-1.52 1.65-.83l12.2 9.4c.46.35 1.05.52 1.65.51.6 0 1.2-.16 1.65-.5l12.2-9.4c.9-.7 1.64-.33 1.64.82z"/></defs><g><g transform="translate(-403 -9749)"><use fill="#fff" xlink:href="#gpt9a"/></g></g></svg>