<svg xmlns="http://www.w3.org/2000/svg" xmlns:xlink="http://www.w3.org/1999/xlink" width="22" height="18" viewBox="0 0 22 18"><defs><path id="mx9pa" d="M953.87 14.99h16.26c.73 0 .86.37.28.83l-7.2 5.7c-.32.27-.77.38-1.21.36-.44.02-.89-.1-1.21-.35l-7.2-5.71c-.58-.46-.45-.83.28-.83zM972 17.85v9.82c0 .73-.6 1.33-1.34 1.33h-17.32c-.74 0-1.34-.6-1.34-1.33v-9.82c0-.73.48-.97 1.07-.53l7.87 5.99c.29.22.68.33 1.06.32.38 0 .77-.1 1.06-.32l7.87-5.99c.59-.44 1.07-.2 1.07.53z"/></defs><g><g transform="translate(-951 -13)"><use fill="#fff" xlink:href="#mx9pa"/></g></g></svg>