<svg xmlns="http://www.w3.org/2000/svg" xmlns:xlink="http://www.w3.org/1999/xlink" width="27" height="21" viewBox="0 0 27 21"><defs><path id="h6rha" d="M1011.34 8559.99h20.32c.92 0 1.08.45.36 1l-9 6.94c-.41.31-.97.45-1.52.42-.55.03-1.1-.1-1.52-.42l-9-6.94c-.72-.55-.56-1 .36-1zm22.66 3.47v11.92c0 .9-.75 1.62-1.67 1.62h-21.66c-.92 0-1.67-.73-1.67-1.62v-11.92c0-.89.6-1.18 1.33-.64l9.84 7.27c.37.26.85.4 1.33.39.48 0 .96-.13 1.33-.4l9.84-7.26c.73-.54 1.33-.25 1.33.64z"/></defs><g><g transform="translate(-1008 -8558)"><use fill="#4e4e4e" xlink:href="#h6rha"/></g></g></svg>