<svg xmlns="http://www.w3.org/2000/svg" xmlns:xlink="http://www.w3.org/1999/xlink" width="28" height="34" viewBox="0 0 28 34"><defs><path id="je1ea" d="M425.57 7527.05l-9.14 12.95-9.16-12.97c-3.41-4.46-2.92-11.83 1.08-15.75a11.47 11.47 0 0 1 8.08-3.28c3.05 0 5.92 1.17 8.08 3.28 4 3.92 4.49 11.29 1.06 15.77zm-4.87-7.95a4.14 4.14 0 0 0-4.17-4.09 4.14 4.14 0 0 0-4.17 4.1 4.14 4.14 0 0 0 4.17 4.08c2.3 0 4.17-1.83 4.17-4.09z"/></defs><g><g transform="translate(-402 -7507)"><use fill="#fa7c00" xlink:href="#je1ea"/></g></g></svg>