<svg xmlns="http://www.w3.org/2000/svg" xmlns:xlink="http://www.w3.org/1999/xlink" width="33" height="31" viewBox="0 0 33 31"><defs><path id="41s1a" d="M433.35 9721.34l-4.48-4.17c-.9-.83-2.37-.8-3.3.05l-2.25 2.1-.44-.22a22.49 22.49 0 0 1-5.43-3.66c-2.06-1.92-3.14-3.74-3.93-5.07l-.24-.4 1.51-1.42.74-.7c.93-.85.95-2.23.06-3.06l-4.47-4.18a2.45 2.45 0 0 0-3.3.06l-1.26 1.18.04.04a6.7 6.7 0 0 0-1.5 3.44c-.6 4.57 1.64 8.75 7.72 14.42 8.4 7.83 15.17 7.24 15.47 7.21a8.06 8.06 0 0 0 3.69-1.4l.03.02 1.28-1.17c.92-.86.94-2.24.06-3.07z"/></defs><g><g transform="translate(-403 -9698)"><use fill="#fff" xlink:href="#41s1a"/></g></g></svg>