<svg xmlns="http://www.w3.org/2000/svg" xmlns:xlink="http://www.w3.org/1999/xlink" width="25" height="24" viewBox="0 0 25 24"><defs><path id="boaia" d="M1032.53 8504.82l-3.24-3.1a1.74 1.74 0 0 0-2.38.05l-1.63 1.56-.32-.17c-1.03-.55-2.44-1.3-3.93-2.72-1.49-1.42-2.27-2.77-2.84-3.76l-.18-.3 1.1-1.05.54-.51c.66-.64.68-1.66.04-2.28l-3.24-3.1a1.74 1.74 0 0 0-2.38.04l-.91.88.02.03a5 5 0 0 0-1.08 2.55c-.43 3.4 1.19 6.5 5.58 10.7 6.08 5.81 10.98 5.37 11.19 5.35a5.71 5.71 0 0 0 2.67-1.04l.02.02.92-.87c.67-.64.69-1.66.05-2.28z"/></defs><g><g transform="translate(-1010 -8487)"><use fill="#4e4e4e" xlink:href="#boaia"/></g></g></svg>