<svg xmlns="http://www.w3.org/2000/svg" xmlns:xlink="http://www.w3.org/1999/xlink" width="21" height="20" viewBox="0 0 21 20"><defs><path id="um0oa" d="M1324.62 26.66l-2.63-2.48a1.43 1.43 0 0 0-1.93.04l-1.32 1.24-.26-.13a13.16 13.16 0 0 1-3.18-2.17c-1.2-1.14-1.84-2.22-2.3-3.01l-.15-.24.89-.84.44-.41c.54-.51.55-1.33.03-1.82l-2.62-2.48a1.43 1.43 0 0 0-1.93.04l-.74.7.02.02a3.98 3.98 0 0 0-.88 2.04c-.35 2.71.96 5.19 4.53 8.55 4.92 4.65 8.89 4.3 9.06 4.28a4.69 4.69 0 0 0 2.17-.83l.01.01.75-.69c.54-.51.56-1.33.04-1.82z"/></defs><g><g transform="translate(-1306 -12)"><use fill="#fff" xlink:href="#um0oa"/></g></g></svg>