<svg xmlns="http://www.w3.org/2000/svg" xmlns:xlink="http://www.w3.org/1999/xlink" width="11" height="28" viewBox="0 0 11 28"><defs><path id="9jcaa" d="M1066.83 4945.94c.1-.04.19-.1.26-.17l2.69-2.67c.3-.3.3-.8 0-1.1-.3-.31-.8-.31-1.11 0l-1.35 1.33v-19.66l1.35 1.34a.78.78 0 1 0 1.11-1.1l-2.69-2.68a.79.79 0 0 0-1.11 0l-2.75 2.73a.78.78 0 0 0 0 1.1c.3.31.8.31 1.11 0l1.4-1.39v19.66l-1.4-1.4a.8.8 0 0 0-1.34.56c0 .2.08.4.23.55l2.75 2.73a.78.78 0 0 0 .85.17z"/></defs><g><g transform="translate(-1061 -4919)"><use xlink:href="#9jcaa"/></g></g></svg>