<svg xmlns="http://www.w3.org/2000/svg" xmlns:xlink="http://www.w3.org/1999/xlink" width="28" height="10" viewBox="0 0 28 10"><defs><path id="ravqa" d="M1012.94 4933.16a.79.79 0 0 0-.17-.25l-2.67-2.69c-.3-.3-.8-.3-1.1 0-.31.3-.31.8 0 1.11l1.33 1.35h-19.66l1.34-1.35c.3-.3.3-.8 0-1.11-.3-.3-.8-.3-1.1 0l-2.68 2.69a.79.79 0 0 0 0 1.11l2.73 2.75a.78.78 0 0 0 1.1 0c.31-.3.31-.8 0-1.12l-1.39-1.4h19.66l-1.4 1.4c-.3.31-.3.81 0 1.12a.78.78 0 0 0 1.11 0l2.73-2.75a.78.78 0 0 0 .17-.85z"/></defs><g><g transform="translate(-986 -4928)"><use xlink:href="#ravqa"/></g></g></svg>