<svg xmlns="http://www.w3.org/2000/svg" xmlns:xlink="http://www.w3.org/1999/xlink" width="29" height="23" viewBox="0 0 29 23"><defs><path id="nbkba" d="M852 254.58c0 .23-.2.42-.43.42h-.87a.43.43 0 0 1-.43-.42c0-.23.19-.42.43-.42h.87c.24 0 .43.19.43.42zm-23.4-8.38v-6.28c0-.46.39-.84.87-.84h6.06c.48 0 .87.38.87.84v6.28c0 .47-.39.84-.87.84h-6.06a.85.85 0 0 1-.87-.84zm4.77-.83c0-.24-.2-.42-.44-.42h-.86a.43.43 0 0 0-.44.42v.83h1.74zm-3.9.83h1.3v-.83c0-.7.58-1.26 1.3-1.26h.86c.72 0 1.3.56 1.3 1.26v.83h1.3v-6.28h-6.06zm6.5 2.52v3.77c0 .46-.4.83-.87.83h-5.2a.85.85 0 0 1-.87-.83v-3.77c0-.47.4-.84.87-.84h5.2c.48 0 .87.37.87.84zm-6.07 3.77h5.2v-3.77h-5.2zm4.33-2.52c0 .23-.2.42-.43.42h-2.6a.43.43 0 0 1-.43-.42c0-.23.2-.42.43-.42h2.6c.24 0 .43.2.43.42zm0 1.26c0 .23-.2.42-.43.42h-2.6a.43.43 0 0 1-.43-.42c0-.23.2-.42.43-.42h2.6c.24 0 .43.19.43.42zm17.26-13.38l-1.35 1.31-2.6 2.51-2.6 2.52-2.6 2.51-1.6 1.55v5.91h8.23c.24 0 .43.19.43.42 0 .23-.2.42-.43.42h-22.54a.43.43 0 0 1-.43-.42c0-.23.2-.42.43-.42h.44v-16A1.26 1.26 0 0 1 826 237v-1.26c0-.23.2-.42.43-.42h12.14c.24 0 .43.2.43.42V237c0 .53-.35 1-.87 1.18v7.85l.03-.02 3.57-3.44 2.6-2.52 2.6-2.51 2.11-2.04c.18-.17.39-.3.62-.38h.02a1.78 1.78 0 0 1 1.58.2c.46.3.74.82.74 1.36 0 .44-.18.87-.5 1.18zm-14.22 16.31v-15.91h-9.54v15.91zm.86-17.17v-.84h-11.26v.84c0 .23.2.42.43.42h10.4c.24 0 .43-.19.43-.42zm1.74 17.17v-6.7a.85.85 0 0 0-.87-.84.85.85 0 0 0-.87.84v6.7zm1.73-7.93v-2.37l-2.08 2.01c.6.18 1.04.65 1.17 1.24l.91-.88zm2.6-4.88l-1.73 1.68v2.36l1.73-1.67zm2.6-2.51l-1.73 1.67v2.37l1.73-1.67zm2.6-2.51l-1.73 1.67v2.37l1.73-1.68zm1.73.34c0-.22-.09-.43-.25-.6a.88.88 0 0 0-.61-.24v2.02l.6-.59a.82.82 0 0 0 .26-.59zm-11.7 11.13v.08a.4.4 0 0 1-.03.16.43.43 0 0 1-.1.14l-.06.05a.34.34 0 0 1-.08.03.28.28 0 0 1-.07.03.46.46 0 0 1-.25-.03.51.51 0 0 1-.15-.08.43.43 0 0 1-.09-.14.4.4 0 0 1-.02-.24c0-.03 0-.06.02-.08a.3.3 0 0 1 .04-.08l.05-.06a.45.45 0 0 1 .14-.09.44.44 0 0 1 .48.1 4 4 0 0 1 .09.13l.02.08z"/></defs><g><g transform="translate(-824 -233)"><use fill="#085d95" xlink:href="#nbkba"/></g></g></svg>