<svg xmlns="http://www.w3.org/2000/svg" xmlns:xlink="http://www.w3.org/1999/xlink" width="26" height="21" viewBox="0 0 26 21"><defs><path id="aodga" d="M1088.83 242.27c0-.38.3-.7.69-.7h11.96a.69.69 0 1 1 0 1.38h-11.96a.69.69 0 0 1-.69-.68zm0 7.7c0-.38.3-.69.69-.69h11.96a.69.69 0 1 1 0 1.38h-11.96a.69.69 0 0 1-.69-.7zm0-5.17c0-.38.3-.69.69-.69h11.96a.69.69 0 1 1 0 1.38h-11.96a.69.69 0 0 1-.69-.69zm0 2.63c0-.38.3-.68.69-.68h11.96a.69.69 0 1 1 0 1.37h-11.96a.69.69 0 0 1-.69-.69zm16.1-7.82v13.01h1.38a.69.69 0 1 1 0 1.38h-21.62a.69.69 0 1 1 0-1.38h1.38v-13h-1.38a.69.69 0 0 1-.69-.7v-2.23c0-.38.3-.7.69-.7h21.62c.38 0 .69.32.69.7v2.23c0 .38-.3.7-.69.7zm-1.38 0h-16.1v13.01h16.1z"/></defs><g><g transform="translate(-1082 -234)"><use fill="#085d95" xlink:href="#aodga"/></g></g></svg>