<svg xmlns="http://www.w3.org/2000/svg" xmlns:xlink="http://www.w3.org/1999/xlink" width="23" height="26" viewBox="0 0 23 26"><defs><path id="ifdna" d="M583 254.4v2.2a.4.4 0 0 1-.4.4h-19.2a.4.4 0 0 1-.4-.4v-2.2c0-.22.18-.4.4-.4h1.15v-8.24h-.46a.4.4 0 0 1-.4-.4v-9.34a1.05 1.05 0 0 1-.66-.97c0-.58.48-1.05 1.06-1.05.6 0 1.07.47 1.07 1.05 0 .44-.28.82-.67.97v1.08h17.02v-1.08a1.05 1.05 0 0 1-.67-.97c0-.58.48-1.05 1.07-1.05.58 0 1.06.47 1.06 1.05 0 .44-.27.82-.66.97v9.35a.4.4 0 0 1-.4.4h-.46V254h1.15c.22 0 .4.17.4.39zm-18.5-13.36h17v-1.19h-17zm0 1.97h17v-1.19h-17zm17.14-7.96c0 .14.12.26.27.26.14 0 .26-.12.26-.26a.27.27 0 0 0-.26-.26.27.27 0 0 0-.27.26zm-17.15 2.84v1.18h17.02v-1.18zm-.66-2.84c0 .14.12.26.26.26.15 0 .27-.12.27-.26a.27.27 0 0 0-.27-.26.27.27 0 0 0-.26.26zm.66 9.92h17.02v-1.18h-17.02zm14.78.8h-5.05V252l5.05-3.17zm-4.41 6.77h4.4v-2.78zm-3.08-4.56l-5.05 3.17v.85l5.05-3.17zm-4.41 4.56h4.4v-2.78zm4.4-6.78h-5.04v4.46l5.05-3.18zm-6.42 8.25h15.3v-8.25h-.58v7.17a.4.4 0 0 1-.4.4h-5.85a.4.4 0 0 1-.4-.4v-7.17h-.84v7.17a.4.4 0 0 1-.4.4h-5.85a.4.4 0 0 1-.4-.4v-7.17h-.58zm16.85.78h-18.4v1.42h18.4z"/></defs><g><g transform="translate(-561 -232)"><use fill="#085d95" xlink:href="#ifdna"/></g></g></svg>