<svg xmlns="http://www.w3.org/2000/svg" xmlns:xlink="http://www.w3.org/1999/xlink" width="34" height="32" viewBox="0 0 34 32"><defs><path id="3eu8a" d="M425.36 9638.26v-2.18a2.1 2.1 0 0 1 2.11-2.08 2.1 2.1 0 0 1 2.12 2.08v2.18a2.1 2.1 0 0 1-2.12 2.07 2.09 2.09 0 0 1-2.1-2.07zm9.65 25.73h-30.02v-26.44l4.3.05v1.06a3.2 3.2 0 0 0 3.2 3.17 3.2 3.2 0 0 0 3.22-3.17v-1.06h8.59v1.06a3.2 3.2 0 0 0 3.21 3.17 3.2 3.2 0 0 0 3.22-3.17v-1.06h4.25zm-2.14-19h-25.74v16.9h25.74zm-22.52-6.73v-2.18a2.1 2.1 0 0 1 2.11-2.08 2.1 2.1 0 0 1 2.11 2.08v2.18a2.1 2.1 0 0 1-2.1 2.07 2.1 2.1 0 0 1-2.12-2.07zm5.37 9h3.38v2.94h-3.38zm5.46 0h3.39v2.94h-3.39zm5.07 0h3.38v2.94h-3.38zm-10.53 4.88h3.38v2.93h-3.38zm5.46 0h3.39v2.93h-3.39zm5.07 0h3.38v2.93h-3.38zm-10.53 4.97h3.38v2.94h-3.38zm-5.37-4.97h3.38v2.93h-3.38zm0 4.97h3.38v2.94h-3.38zm10.83 0h3.39v2.94h-3.39zm5.07 0h3.38v2.94h-3.38z"/></defs><g><g transform="translate(-403 -9633)"><use fill="#fff" xlink:href="#3eu8a"/></g></g></svg>