<svg xmlns="http://www.w3.org/2000/svg" xmlns:xlink="http://www.w3.org/1999/xlink" width="22" height="22" viewBox="0 0 22 22"><defs><path id="xez9a" d="M991 250.62v2.08a.3.3 0 0 1-.3.3h-2.37a.3.3 0 0 1-.3-.3v-1.78h-.3v1.19a.3.3 0 0 1-.3.3h-11.87a.3.3 0 0 1-.3-.3v-1.19h-.3v1.78a.3.3 0 0 1-.29.3h-2.37a.3.3 0 0 1-.3-.3v-2.08c0-.16.13-.3.3-.3v-7.41a.3.3 0 0 1 0-.6h.02a9.1 9.1 0 0 1 9.18-8.31 9.1 9.1 0 0 1 9.18 8.31h.02a.3.3 0 1 1 0 .6v7.42c.17 0 .3.13.3.3zm-.9-.3v-6.23h-1.18v6.24zm-2.37-6.82v1.19h.6v-1.78a.3.3 0 0 1-.03-.6l-.09-.6h-3.29-6.84-3.3l-.08.6a.3.3 0 0 1-.03.6v1.78h.6v-1.2c0-.15.13-.29.3-.29h3.85c.17 0 .3.14.3.3a1.78 1.78 0 0 0 3.56 0c0-.16.13-.3.3-.3h3.86c.16 0 .3.14.3.3zm-10.68.3v8.01h.6v-8.01zm1.18 8.01h.6v-8.01h-.6zm1.2 0h.59v-6.46c-.25-.2-.45-.43-.6-.7zm1.18 0h.6v-3.26a.3.3 0 1 1 0-.6v-2.1c-.21-.02-.41-.07-.6-.15zm1.19 0h.59v-6.1c-.19.07-.39.12-.6.15v2.1a.3.3 0 0 1 0 .59zm1.18 0h.6v-7.16a2.4 2.4 0 0 1-.6.7zm1.2 0h.59v-8.01h-.6zm1.18 0h.6v-8.01h-.6zm-9.1-10.69h1.64c.14-.23.3-.44.46-.64a.3.3 0 0 1-.04-.04l-1.02-1.01c-.44.49-.8 1.06-1.05 1.7zm5.54-3.55v1.49c.35.02.69.09 1.01.2l.57-1.38a5.65 5.65 0 0 0-1.58-.31zm3.48 1.44c-.4-.36-.86-.67-1.35-.9l-.57 1.38c.31.15.6.35.86.57a.3.3 0 0 1 .04-.04zm-4.08.05v-1.49c-.55.03-1.08.14-1.58.31l.57 1.38c.32-.11.66-.18 1.01-.2zm-3.48-.05l1.02 1.01.03.04c.27-.22.56-.42.87-.57l-.57-1.38c-.5.23-.94.54-1.35.9zm.89 2.11h1.7l-.44-1.08c-.5.25-.93.62-1.26 1.08zm3.43 0l.54-1.31a3.56 3.56 0 0 0-2.16 0l.54 1.31zm.64 0h1.71a3.55 3.55 0 0 0-1.26-1.08zm2.42 0h1.65a5.63 5.63 0 0 0-1.05-1.7l-1.02 1.02a.3.3 0 0 1-.04.04c.17.2.32.41.46.64zm2.97 0a6.8 6.8 0 0 0-6.57-4.75 6.8 6.8 0 0 0-6.57 4.75h.69a6.22 6.22 0 0 1 11.76 0zm2.04 1.79h-1.19v.59h1.19zm-17.2-.6h1.2a7.32 7.32 0 0 1 7.39-6.53 7.32 7.32 0 0 1 7.4 6.53h1.19a8.5 8.5 0 0 0-8.59-7.72 8.5 8.5 0 0 0-8.59 7.72zm-.02.6v.59h1.19v-.6zm0 7.42h1.19v-6.24h-1.19zm1.48.6h-1.78v1.48h1.78zm.9-.6v-5.05h-.6v5.05zm.59 1.48h.6v-8.01h-.6zm11.28-8.01h-.6v8.01h.6zm.6 6.53h.59v-5.05h-.6zm2.67.6h-1.79v1.48h1.79z"/></defs><g><g transform="translate(-970 -232)"><use fill="#085d95" xlink:href="#xez9a"/></g></g></svg>