<svg xmlns="http://www.w3.org/2000/svg" xmlns:xlink="http://www.w3.org/1999/xlink" width="34" height="25" viewBox="0 0 34 25"><defs><path id="p20ma" d="M1514 9989.68v5.38c0 3.42-.55 5.39-1.84 6.6-1.26 1.17-3.21 1.65-6.72 1.65h-14.72c-7.24 0-8.56-2.77-8.56-8.25v-5.38c0-2.82 0-4.86 1.12-6.25 1.14-1.42 3.3-2 7.44-2h14.72c4.05 0 6.17.54 7.32 1.88 1.15 1.34 1.24 3.4 1.24 6.37zm-10.85 2.55a1 1 0 0 0-.55-.9l-6.68-3.38c-.32-.16-.7-.15-1 .03a1 1 0 0 0-.5.86v6.8a1 1 0 0 0 .5.85 1.05 1.05 0 0 0 1 .04l6.68-3.41a1 1 0 0 0 .55-.9z"/></defs><g><g transform="translate(-1481 -9980)"><use fill="#0e4569" xlink:href="#p20ma"/></g></g></svg>