<svg xmlns="http://www.w3.org/2000/svg" xmlns:xlink="http://www.w3.org/1999/xlink" width="27" height="27" viewBox="0 0 27 27"><defs><path id="uh9ka" d="M764.79 17.18l-4.73 4.56-.97-1.03 3.58-3.45a.87.87 0 0 0 .02-1.23l-3.2-3.3a.86.86 0 0 0-.6-.27.86.86 0 0 0-.63.24l-2.82 2.72 2.45 2.53a.54.54 0 0 1-.57.88l-3.55-3.76 4.65-4.48a.72.72 0 0 1 1 .03l5.37 5.56c.27.28.27.73 0 1zm-12.05 9.65l.97 1.03-5.13 4.94a.71.71 0 0 1-1-.03l-5.38-5.56a.71.71 0 0 1 .01-1l5.2-5.02 2.73 2.89c-.02.1-.07.2-.15.26-.21.2-.54.2-.75-.01l-1.46-1.52-.4.37 1.47 1.53c.2.2.2.54 0 .74-.22.2-.55.2-.75-.01l-1.47-1.53-.4.38 1.48 1.52a.52.52 0 1 1-.76.73l-1.47-1.52-.39.37 1.47 1.53c.2.21.2.54-.01.74-.21.2-.55.2-.75-.01l-1.47-1.53a.87.87 0 0 0-.02 1.23l3.2 3.31a.88.88 0 0 0 1.23.02zm5.38-9.82a1.76 1.76 0 1 1 2.54-2.45 1.76 1.76 0 0 1-2.54 2.45zm.76-.73a.71.71 0 1 0 1.02-.99.71.71 0 0 0-1.02.99zm2.85 9.03l-4.62 4.35-10.3-10.92 4.62-4.35zm-9.52-7.87a.4.4 0 0 0-.11-.29l-.5-.53a.4.4 0 0 0-.57-.02l-.27.26a.4.4 0 0 0-.02.56l.5.54a.4.4 0 0 0 .28.12c.1 0 .56-.36.56-.36a.41.41 0 0 0 .13-.28zm7.16 8a.4.4 0 0 0 .01-.57l-5.79-6.13a.4.4 0 0 0-.56-.02l-.27.26a.4.4 0 0 0-.02.56l5.79 6.13a.4.4 0 0 0 .56.02zm-14.23-8.46l4.63-4.35 1.2 1.26-4.63 4.35zm-2.06-2.19a1.37 1.37 0 0 1 .06-1.94l2.62-2.46c.55-.53 1.42-.5 1.95.05l1.62 1.72-4.62 4.35zm.83-.94l.85.9 2.8-2.64-.85-.9zm20.17 17.68a.68.68 0 0 1-.9.84l-5.48-2.09 4.61-4.35zm-1.47-1.88l-.69-2.2-2.69 2.53 2.17.82z"/></defs><g><g transform="translate(-740 -8)"><use fill="#fff" xlink:href="#uh9ka"/></g></g></svg>